<?xml version="1.0" encoding="UTF-8"?>
<svg version="1.1" xmlns="http://www.w3.org/2000/svg" width="612" height="408">
<path d="M0 0 C1.09181076 -0.0159874 2.18362152 -0.03197479 3.30851746 -0.04844666 C4.48457047 -0.05380936 5.66062347 -0.05917206 6.87231445 -0.06469727 C8.69627495 -0.07823997 8.69627495 -0.07823997 10.55708313 -0.09205627 C13.13178036 -0.10656693 15.70651453 -0.11544752 18.28125 -0.11914062 C22.20352152 -0.13100648 26.12420448 -0.18016292 30.04614258 -0.23071289 C32.55069221 -0.24018081 35.05525149 -0.24741408 37.55981445 -0.25219727 C38.72574631 -0.27172958 39.89167816 -0.2912619 41.09294128 -0.31138611 C48.37100016 -0.27144822 53.72139535 0.7599996 59.5480957 5.30639648 C66.2876724 12.50963172 66.86215844 20.48305985 66.8840332 29.95483398 C66.8940184 31.47278061 66.8940184 31.47278061 66.90420532 33.02139282 C66.91429498 35.15446159 66.91902349 37.28756169 66.91870117 39.4206543 C66.92307273 42.66435302 66.95942818 45.90668816 66.99731445 49.15014648 C67.00318389 51.23087104 67.00715243 53.311602 67.0090332 55.39233398 C67.02340424 56.35199066 67.03777527 57.31164734 67.05258179 58.30038452 C66.99235415 67.28277982 64.07820834 73.84414759 58.5012207 80.79858398 C51.94838468 85.8573734 44.53931465 85.74950277 36.63793945 85.70483398 C35.51166641 85.70770416 34.38539337 85.71057434 33.22499084 85.71353149 C30.85409032 85.71556495 28.48317274 85.7100856 26.11230469 85.69750977 C22.49351365 85.68143166 18.87583689 85.69739158 15.25708008 85.71655273 C12.94653075 85.71457047 10.63598211 85.71072714 8.32543945 85.70483398 C6.71112282 85.71394302 6.71112282 85.71394302 5.06419373 85.72323608 C-3.2138421 85.64609124 -9.31225106 84.28011314 -15.4519043 78.30639648 C-18.73626659 73.47384994 -20.56441761 69.1691978 -20.62890625 63.31933594 C-20.64174149 62.30430496 -20.65457672 61.28927399 -20.6678009 60.2434845 C-20.67518784 59.14662827 -20.68257477 58.04977203 -20.69018555 56.91967773 C-20.69825729 55.78870163 -20.70632904 54.65772552 -20.71464539 53.49247742 C-20.72848441 51.09591199 -20.73920737 48.69932686 -20.74707031 46.30273438 C-20.76425523 42.65057616 -20.80814138 38.99932968 -20.85229492 35.34741211 C-20.86242449 33.01734063 -20.87093977 30.68726147 -20.87768555 28.35717773 C-20.89519363 27.27044266 -20.91270172 26.18370758 -20.93074036 25.06404114 C-20.90932022 17.51689139 -19.80842986 12.11929175 -14.6706543 6.28295898 C-14.1034668 5.83694336 -13.5362793 5.39092773 -12.9519043 4.93139648 C-12.3847168 4.46991211 -11.8175293 4.00842773 -11.2331543 3.53295898 C-7.42128655 0.90812023 -4.65886466 0.0516991 0 0 Z " fill="#B5E3FB" transform="translate(124.451904296875,160.693603515625)"/>
<path d="M0 0 C0.68513672 -0.00322266 1.37027344 -0.00644531 2.07617188 -0.00976562 C7.17022414 0.04522414 7.17022414 0.04522414 9.4375 2.3125 C9.58257695 5.05735593 9.62402423 7.69730543 9.5625 10.4375 C9.55347656 11.19160156 9.54445312 11.94570312 9.53515625 12.72265625 C9.5115687 14.58607254 9.47569719 16.44932593 9.4375 18.3125 C10.56929687 18.28929687 11.70109375 18.26609375 12.8671875 18.2421875 C14.34895175 18.22343099 15.83072312 18.20523066 17.3125 18.1875 C18.05886719 18.17074219 18.80523437 18.15398437 19.57421875 18.13671875 C21.52944461 18.1191041 23.48492021 18.20929811 25.4375 18.3125 C28.06473824 20.93973824 27.69865971 22.85461673 27.7109375 26.43359375 C27.70320313 27.21863281 27.69546875 28.00367188 27.6875 28.8125 C27.69910156 29.99005859 27.69910156 29.99005859 27.7109375 31.19140625 C27.69080787 37.05919213 27.69080787 37.05919213 25.4375 39.3125 C22.69264407 39.45757695 20.05269457 39.49902423 17.3125 39.4375 C16.55839844 39.42847656 15.80429688 39.41945312 15.02734375 39.41015625 C13.16392746 39.3865687 11.30067407 39.35069719 9.4375 39.3125 C9.46070313 40.44429687 9.48390625 41.57609375 9.5078125 42.7421875 C9.52656901 44.22395175 9.54476934 45.70572312 9.5625 47.1875 C9.57925781 47.93386719 9.59601563 48.68023437 9.61328125 49.44921875 C9.6308959 51.40444461 9.54070189 53.35992021 9.4375 55.3125 C6.8863966 57.8636034 5.15812918 57.59977585 1.671875 57.63476562 C0.93453125 57.63154297 0.1971875 57.62832031 -0.5625 57.625 C-1.29984375 57.64111328 -2.0371875 57.65722656 -2.796875 57.67382812 C-4.9375 57.67578125 -4.9375 57.67578125 -8.5625 57.3125 C-11.01641569 53.63162647 -10.79052759 50.86894412 -10.6875 46.625 C-10.67847656 45.92310547 -10.66945312 45.22121094 -10.66015625 44.49804688 C-10.63663704 42.76938475 -10.60076713 41.04089855 -10.5625 39.3125 C-11.69429687 39.33570313 -12.82609375 39.35890625 -13.9921875 39.3828125 C-15.47395175 39.40156901 -16.95572312 39.41976934 -18.4375 39.4375 C-19.18386719 39.45425781 -19.93023437 39.47101563 -20.69921875 39.48828125 C-22.65444461 39.5058959 -24.60992021 39.41570189 -26.5625 39.3125 C-29.18973824 36.68526176 -28.82365971 34.77038327 -28.8359375 31.19140625 C-28.82820313 30.40636719 -28.82046875 29.62132812 -28.8125 28.8125 C-28.82023437 28.02746094 -28.82796875 27.24242187 -28.8359375 26.43359375 C-28.81580787 20.56580787 -28.81580787 20.56580787 -26.5625 18.3125 C-23.81764407 18.16742305 -21.17769457 18.12597577 -18.4375 18.1875 C-17.68339844 18.19652344 -16.92929688 18.20554688 -16.15234375 18.21484375 C-14.28892746 18.2384313 -12.42567407 18.27430281 -10.5625 18.3125 C-10.61470703 16.74048828 -10.61470703 16.74048828 -10.66796875 15.13671875 C-10.69610937 13.75782853 -10.72340924 12.37892098 -10.75 11 C-10.77513672 10.30970703 -10.80027344 9.61941406 -10.82617188 8.90820312 C-10.86681228 6.10401522 -10.85285187 3.8604573 -9.5234375 1.3515625 C-6.45657203 -0.27350964 -3.38016724 -0.07994719 0 0 Z " fill="#054678" transform="translate(147.5625,174.6875)"/>
<path d="M0 0 C6.54279208 5.87201844 9.60695412 10.94655293 10.30078125 19.8671875 C10.3202099 21.20298943 10.32376252 22.53910426 10.3125 23.875 C10.30404053 24.92772095 10.30404053 24.92772095 10.29541016 26.00170898 C10.10572741 34.12332333 8.4642119 40.39953237 2.8828125 46.4296875 C-9.86247017 57.05957056 -23.17900633 54 -40 54 C-40 34.53 -40 15.06 -40 -5 C-9.4543229 -6.79680454 -9.4543229 -6.79680454 0 0 Z M-28 5 C-28 17.87 -28 30.74 -28 44 C-15.35249543 44.26106648 -15.35249543 44.26106648 -5.0625 38.5 C-0.84359362 32.5671629 -0.58136276 25.0919837 -1.625 18.125 C-2.59276414 13.85223002 -3.59956623 10.94091569 -7 8 C-14.10185423 3.52274407 -18.66320911 5 -28 5 Z " fill="#1E8AE2" transform="translate(258,177)"/>
<path d="M0 0 C3.96 0 7.92 0 12 0 C12.33 9.9 12.66 19.8 13 30 C14.65 28.02 16.3 26.04 18 24 C18.66 24 19.32 24 20 24 C20.226875 23.443125 20.45375 22.88625 20.6875 22.3125 C22.5802206 18.97770657 23.80268382 17.25692907 27 15 C31.3639583 14.57101866 35.62957307 14.71205093 40 15 C39.34 16.32 38.68 17.64 38 19 C37.34 19 36.68 19 36 19 C35.7525 19.56203125 35.505 20.1240625 35.25 20.703125 C33.78725133 23.39092569 32.03195127 25.46405482 30 27.75 C28.948125 28.94882813 28.948125 28.94882813 27.875 30.171875 C26 32 26 32 24 32 C25.45163791 36.2384722 27.58090501 39.33999472 30.3125 42.875 C31.11171875 43.92300781 31.9109375 44.97101563 32.734375 46.05078125 C33.85585938 47.51064453 33.85585938 47.51064453 35 49 C40 55.54816514 40 55.54816514 40 59 C35.75259544 59.85385968 32.221335 60.07641562 28 59 C23.72631327 55.55186447 20.91352718 50.57761007 18 46 C17.01392419 44.65633625 16.02074902 43.31751631 15 42 C12.15385976 44.84614024 12.54420924 47.80369142 12.375 51.625 C12.31699219 52.68460938 12.31699219 52.68460938 12.2578125 53.765625 C12.16352276 55.50998524 12.08067109 57.25495691 12 59 C8.04 59 4.08 59 0 59 C0 39.53 0 20.06 0 0 Z " fill="#297FC5" transform="translate(486,172)"/>
<path d="M0 0 C5.61059258 3.34500445 9.58696595 8.22354745 11.5625 14.4375 C12.36929866 22.28971487 12.65249208 30.01903491 7.5625 36.4375 C2.23217958 42.1937298 -2.84541744 44.44544772 -10.6875 44.875 C-16.79149317 44.74194293 -21.49419865 43.00914656 -26.4375 39.4375 C-32.80192264 32.75119851 -33.02788295 25.43649766 -32.84765625 16.69921875 C-32.50547691 11.09066642 -30.46086002 7.33313431 -26.4375 3.4375 C-19.34465365 -2.60077447 -8.53963786 -3.87262647 0 0 Z M-18.4375 11.25 C-21.33679659 15.87075393 -21.7980571 19.02914343 -21.4375 24.4375 C-20.25913496 27.97259511 -19.18975175 30.60464985 -16.6875 33.375 C-13.34064086 34.95546126 -11.09768158 34.94235263 -7.4375 34.4375 C-4.46703127 32.64726215 -2.01247586 30.58745172 -0.4375 27.4375 C-0.26278152 25.33801399 -0.17032148 23.23125592 -0.125 21.125 C-0.08761719 19.99449219 -0.05023438 18.86398438 -0.01171875 17.69921875 C-0.52144182 13.79445943 -1.70959183 12.21601871 -4.4375 9.4375 C-9.16463218 7.07393391 -14.91081978 7.07176303 -18.4375 11.25 Z " fill="#1E8CE6" transform="translate(306.4375,187.5625)"/>
<path d="M0 0 C4.53861925 2.14987228 6.85253931 4.47903012 9 9 C10.26385487 12.76929643 10.11332479 16.44215399 10.09765625 20.390625 C10.0962413 21.09523865 10.09482635 21.79985229 10.09336853 22.52581787 C10.08778933 24.76725584 10.07524073 27.00859243 10.0625 29.25 C10.05748231 30.77343605 10.05291987 32.29687368 10.04882812 33.8203125 C10.03782674 37.54690772 10.02057646 41.27344396 10 45 C6.04 45 2.08 45 -2 45 C-2.01458252 44.07662842 -2.02916504 43.15325684 -2.04418945 42.2019043 C-2.10526308 38.77422796 -2.1794161 35.34735338 -2.26245117 31.92016602 C-2.29569423 30.43720146 -2.32372823 28.95411056 -2.34643555 27.47094727 C-2.37999468 25.33815707 -2.43230638 23.20652388 -2.48828125 21.07421875 C-2.51446533 19.79119873 -2.54064941 18.50817871 -2.56762695 17.1862793 C-2.74885422 14.05746814 -2.74885422 14.05746814 -4.31713867 12.08129883 C-7.18680055 10.23743804 -9.70072422 10.65270781 -13 11 C-16.1850357 12.76015131 -16.83296972 13.49890916 -18 17 C-18.15070797 19.13661258 -18.2485966 21.27712124 -18.31640625 23.41796875 C-18.35830078 24.67158203 -18.40019531 25.92519531 -18.44335938 27.21679688 C-18.48267578 28.52712891 -18.52199219 29.83746094 -18.5625 31.1875 C-18.60570992 32.52279978 -18.649325 33.85808652 -18.69335938 35.19335938 C-18.79956502 38.46213297 -18.90160997 41.73098333 -19 45 C-22.63 45 -26.26 45 -30 45 C-30 30.48 -30 15.96 -30 1 C-27.03 1 -24.06 1 -21 1 C-20.34 1.99 -19.68 2.98 -19 4 C-17.63875 3.01 -17.63875 3.01 -16.25 2 C-11.11180007 -0.93013438 -5.74316964 -0.78968583 0 0 Z " fill="#1C8BE6" transform="translate(469,186)"/>
<path d="M0 0 C3.74307632 2.24742849 6.09442806 4.73019403 8.5 8.375 C9.3125 11.75 9.3125 11.75 9.5 14.375 C5.54 14.375 1.58 14.375 -2.5 14.375 C-3.16 13.055 -3.82 11.735 -4.5 10.375 C-7.70220529 8.77389736 -11.02500398 8.88546683 -14.5 9.375 C-18.28207098 11.96273278 -19.56451559 14.95271005 -20.5 19.375 C-20.42695219 23.57930723 -20.03394364 27.90749817 -17.5 31.375 C-14.28044012 33.67468563 -11.37440468 33.92848638 -7.5 33.375 C-4.66588845 31.041508 -4.66588845 31.041508 -2.5 28.375 C-1.5 27.375 -1.5 27.375 0.78515625 27.27734375 C1.70167969 27.28894531 2.61820312 27.30054688 3.5625 27.3125 C4.48160156 27.32152344 5.40070313 27.33054688 6.34765625 27.33984375 C7.05792969 27.35144531 7.76820313 27.36304688 8.5 27.375 C9.5 30.375 9.5 30.375 8.375 33.25 C5.40885464 38.19357559 2.08171831 41.78233881 -3.41796875 43.8671875 C-10.09885724 45.4966725 -16.72115704 45.19001552 -22.71484375 41.70703125 C-27.67711666 38.0043287 -31.33737789 33.53689716 -32.5 27.375 C-33.24337857 19.37206507 -32.67986761 12.38431646 -28.5 5.375 C-21.64520713 -2.60660814 -9.42942649 -4.31059497 0 0 Z " fill="#218BE0" transform="translate(355.5,187.625)"/>
<path d="M0 0 C3.96 0 7.92 0 12 0 C12 16.17 12 32.34 12 49 C21.24 49 30.48 49 40 49 C40 52.3 40 55.6 40 59 C26.8 59 13.6 59 0 59 C0 39.53 0 20.06 0 0 Z " fill="#1C8CE5" transform="translate(372,172)"/>
<path d="M0 0 C6.15234375 -0.09765625 6.15234375 -0.09765625 8 0 C9.83219646 1.83219646 9.23901328 4.75713741 9.31640625 7.22265625 C9.35830078 8.48271484 9.40019531 9.74277344 9.44335938 11.04101562 C9.48317596 12.38150736 9.52288814 13.7220022 9.5625 15.0625 C9.60568042 16.40691523 9.64929456 17.7513166 9.69335938 19.09570312 C9.79985358 22.3970234 9.9018646 25.69842236 10 29 C13.57575896 29 15.05295935 27.91159393 18 26 C18.99 26.99 19.98 27.98 21 29 C20.01 31.475 20.01 31.475 19 34 C17.02 34 15.04 34 13 34 C13.66 35.32 14.32 36.64 15 38 C14.19175781 38.50015625 13.38351562 39.0003125 12.55078125 39.515625 C9.70648831 42.2858705 9.3756508 43.7793748 9.20507812 47.68359375 C9.19927734 48.36550781 9.19347656 49.04742187 9.1875 49.75 C9.16236328 50.44738281 9.13722656 51.14476562 9.11132812 51.86328125 C9.05271038 53.57491949 9.02342947 55.2875186 9 57 C6.03 57 3.06 57 0 57 C-0.81285275 53.46883274 -1.10097851 50.27801871 -1.02172852 46.65893555 C-1.00163223 45.6182341 -0.98153595 44.57753265 -0.96083069 43.5052948 C-0.93379562 42.3936647 -0.90676056 41.28203461 -0.87890625 40.13671875 C-0.85529526 38.98959915 -0.83168427 37.84247955 -0.80735779 36.66059875 C-0.7308873 33.00276808 -0.64679111 29.345158 -0.5625 25.6875 C-0.50926271 23.20508886 -0.45652242 20.72266701 -0.40429688 18.24023438 C-0.2752946 12.16002025 -0.14003374 6.07996952 0 0 Z " fill="#1C8AE2" transform="translate(488,173)"/>
<path d="M0 0 C3.96 0 7.92 0 12 0 C12 14.52 12 29.04 12 44 C8.04 44 4.08 44 0 44 C0 29.48 0 14.96 0 0 Z " fill="#1B8CE6" transform="translate(419,187)"/>
<path d="M0 0 C5.61 0 11.22 0 17 0 C17 0.33 17 0.66 17 1 C11.72 1 6.44 1 1 1 C1 19.48 1 37.96 1 57 C11.56 56.67 22.12 56.34 33 56 C33 55.01 33 54.02 33 53 C34.32 53 35.64 53 37 53 C36.33131686 49.88667752 36.33131686 49.88667752 33.9375 48.8125 C33.298125 48.544375 32.65875 48.27625 32 48 C31.34 48.66 30.68 49.32 30 50 C26.375 49.625 26.375 49.625 23 49 C23 48.67 23 48.34 23 48 C23.60328125 47.84144531 24.2065625 47.68289062 24.828125 47.51953125 C28.54079493 46.43567116 31.42379079 45.47278704 34.4375 43 C38.29300595 35.59742857 38.33460458 28.36799961 36.80078125 20.3125 C35.93088229 17.80040155 34.91860634 16.77590009 33 15 C33 14.34 33 13.68 33 13 C36.33537489 14.11179163 37.63707344 15.47411298 40 18 C41.32 17.34 42.64 16.68 44 16 C43.505 17.485 43.505 17.485 43 19 C42.34 19 41.68 19 41 19 C41 24.94 41 30.88 41 37 C41.99 36.34 42.98 35.68 44 35 C44.66 35 45.32 35 46 35 C47.0773541 27.50824535 46.8388516 20.51094816 46 13 C48 14 48 14 49.10546875 17.0703125 C50.12292594 20.98637441 50.34650356 24.84169187 50.3125 28.875 C50.30404053 29.92772095 50.30404053 29.92772095 50.29541016 31.00170898 C50.10572741 39.12332333 48.4642119 45.39953237 42.8828125 51.4296875 C30.13752983 62.05957056 16.82099367 59 0 59 C0 39.53 0 20.06 0 0 Z " fill="#218ADD" transform="translate(218,172)"/>
<path d="M0 0 C1.98 0 3.96 0 6 0 C6.65579028 11.79251444 7.1038799 23.5627044 7.125 35.375 C7.12951172 36.41325928 7.13402344 37.45151855 7.13867188 38.52124023 C7.1277668 44.10872668 6.83095968 49.4734586 6 55 C3.69 55 1.38 55 -1 55 C-0.67 36.85 -0.34 18.7 0 0 Z " fill="#1A8BE8" transform="translate(374,174)"/>
<path d="M0 0 C1.04449911 3.13349732 0.93423645 3.98968256 0 7 C-0.99 7 -1.98 7 -3 7 C-3.33 11.95 -3.66 16.9 -4 22 C-3.34 22 -2.68 22 -2 22 C-1.566875 23.11375 -1.13375 24.2275 -0.6875 25.375 C0.69911119 29.17512334 0.69911119 29.17512334 4 31 C8.18930404 31.46547823 10.26411924 31.49058717 13.8125 29.125 C15.21788731 27.75976661 16.61454417 26.38545583 18 25 C17.28022735 29.64767483 14.67716945 31.64762189 11.2109375 34.58203125 C7.89713567 36.70731405 5.83070018 36.55864378 2 36 C2.99 36.99 3.98 37.98 5 39 C4.67 39.66 4.34 40.32 4 41 C1.36 39.68 -1.28 38.36 -4 37 C-4 36.34 -4 35.68 -4 35 C-4.66 35 -5.32 35 -6 35 C-6.33 33.02 -6.66 31.04 -7 29 C-7.99 29 -8.98 29 -10 29 C-11.09658936 25.71023192 -10.79953138 24.28696233 -10 21 C-10.66 21 -11.32 21 -12 21 C-12.125 16.25 -12.125 16.25 -11 14 C-11.66 14 -12.32 14 -13 14 C-12.67 12.02 -12.34 10.04 -12 8 C-11.34 8 -10.68 8 -10 8 C-9.731875 7.236875 -9.46375 6.47375 -9.1875 5.6875 C-7.02863691 0.80165195 -5.38859138 -0.43691281 0 0 Z " fill="#238ADE" transform="translate(288,190)"/>
<path d="M0 0 C0.7765373 2.66241359 1.15032919 5.25136507 1.4375 8 C1.81035574 11.03933923 2.1524762 13.47180954 4 16 C7.21955988 18.29968563 10.12559532 18.55348638 14 18 C16.83411155 15.666508 16.83411155 15.666508 19 13 C20 12 20 12 22.28515625 11.90234375 C23.65994141 11.91974609 23.65994141 11.91974609 25.0625 11.9375 C25.98160156 11.94652344 26.90070313 11.95554688 27.84765625 11.96484375 C28.55792969 11.97644531 29.26820313 11.98804688 30 12 C31 15 31 15 29.875 17.875 C26.90714459 22.82142568 23.58241525 26.39281145 18.08984375 28.49609375 C12.31403342 29.88876577 6.79717582 29.73105457 1.3125 27.5 C0.549375 27.005 -0.21375 26.51 -1 26 C2.54667178 24.74872094 4.72253438 25.27714947 8.25 26.4375 C9.58804687 26.86869141 9.58804687 26.86869141 10.953125 27.30859375 C11.62859375 27.53675781 12.3040625 27.76492187 13 28 C14.41385911 25.61837991 14.41385911 25.61837991 15 23 C13.989375 22.95875 12.97875 22.9175 11.9375 22.875 C7.16637284 22.21557592 4.22017783 19.41559759 1 16 C-1.25414782 12.61877827 -1.24544447 11.3935272 -1.1875 7.4375 C-1.18105469 6.46683594 -1.17460937 5.49617187 -1.16796875 4.49609375 C-1 2 -1 2 0 0 Z " fill="#2689D7" transform="translate(334,203)"/>
<path d="M0 0 C3.96 0 7.92 0 12 0 C12 16.17 12 32.34 12 49 C21.24 49 30.48 49 40 49 C40 52.3 40 55.6 40 59 C26.8 59 13.6 59 0 59 C0 39.53 0 20.06 0 0 Z M1 1 C1 19.48 1 37.96 1 57 C13.54 57 26.08 57 39 57 C39 55.35 39 53.7 39 52 C37.92970871 50.70454552 37.92970871 50.70454552 35.40795898 50.88647461 C34.28204346 50.89171143 33.15612793 50.89694824 31.99609375 50.90234375 C30.3553186 50.90609009 30.3553186 50.90609009 28.68139648 50.90991211 C26.58066772 50.92356812 26.58066772 50.92356812 24.4375 50.9375 C20.003125 50.958125 15.56875 50.97875 11 51 C11 34.5 11 18 11 1 C7.7 1 4.4 1 1 1 Z " fill="#3680BA" transform="translate(372,172)"/>
<path d="M0 0 C2.475 0.495 2.475 0.495 5 1 C5 3.31 5 5.62 5 8 C5.99 7.67 6.98 7.34 8 7 C8.01417969 7.58007812 8.02835937 8.16015625 8.04296875 8.7578125 C8.40316416 14.65722928 9.47050867 17.86437748 14 22 C18.49394252 24.45124137 21.8947657 25.37355373 27 25 C27 25.99 27 26.98 27 28 C26.360625 28.12375 25.72125 28.2475 25.0625 28.375 C24.381875 28.58125 23.70125 28.7875 23 29 C22.67 29.66 22.34 30.32 22 31 C15.256228 30.29752375 9.05994908 29.48250274 4.5625 24.0625 C3.30002223 21.58804357 2.59177973 19.66300877 2 17 C1.34 16.67 0.68 16.34 0 16 C0 10.72 0 5.44 0 0 Z " fill="#1C8CE6" transform="translate(325,200)"/>
<path d="M0 0 C1.2065625 0.495 1.2065625 0.495 2.4375 1 C2.4375 1.66 2.4375 2.32 2.4375 3 C3.7575 3 5.0775 3 6.4375 3 C9.55590922 6.11840922 10.93717382 8.62214594 11.4375 13 C11.7675 13 12.0975 13 12.4375 13 C12.4375 15.97 12.4375 18.94 12.4375 22 C11.7775 21.01 11.1175 20.02 10.4375 19 C10.1075 22.3 9.7775 25.6 9.4375 29 C8.7775 29 8.1175 29 7.4375 29 C7.1075 30.98 6.7775 32.96 6.4375 35 C4.4375 33 4.4375 33 4.3125 30.375 C4.35375 29.59125 4.395 28.8075 4.4375 28 C5.0975 27.67 5.7575 27.34 6.4375 27 C6.42589844 26.32453125 6.41429687 25.6490625 6.40234375 24.953125 C6.39332031 24.06109375 6.38429688 23.1690625 6.375 22.25 C6.36339844 21.36828125 6.35179687 20.4865625 6.33984375 19.578125 C6.42923802 17.2181162 6.76837179 15.25501476 7.4375 13 C4.3629644 13.7763932 4.3629644 13.7763932 2.4375 16 C2.3125 9.25 2.3125 9.25 3.4375 7 C2.1175 7.33 0.7975 7.66 -0.5625 8 C-0.8925 7.01 -1.2225 6.02 -1.5625 5 C-5.8525 5 -10.1425 5 -14.5625 5 C-14.5625 3.35 -14.5625 1.7 -14.5625 0 C-10.13720667 -2.21264666 -4.59723859 -1.29045294 0 0 Z " fill="#1B8CE7" transform="translate(304.5625,190)"/>
<path d="M0 0 C2.38564077 0.57584432 4.66682784 1.22227595 7 2 C7 2.66 7 3.32 7 4 C8.32 4.33 9.64 4.66 11 5 C11 5.66 11 6.32 11 7 C12.19496094 7.32484375 12.19496094 7.32484375 13.4140625 7.65625 C16 9 16 9 16.9609375 11.46875 C17.87962483 18.19423462 18.09903469 24.28697728 17 31 C16.21625 31.309375 15.4325 31.61875 14.625 31.9375 C12.07669872 32.92875038 12.07669872 32.92875038 10 34 C9.8916333 31.2697611 9.81253306 28.54385457 9.75 25.8125 C9.71648437 25.04357422 9.68296875 24.27464844 9.6484375 23.48242188 C9.57756151 19.35389569 9.67067944 17.49844836 12.015625 13.94921875 C12.67046875 13.30597656 13.3253125 12.66273438 14 12 C11.525 13.485 11.525 13.485 9 15 C8.1028125 13.8553125 8.1028125 13.8553125 7.1875 12.6875 C5.1839761 10.08139955 5.1839761 10.08139955 3.25 8.4375 C2 7 2 7 2 3 C1.01 2.67 0.02 2.34 -1 2 C-0.67 1.34 -0.34 0.68 0 0 Z " fill="#1B8BE7" transform="translate(248,176)"/>
<path d="M0 0 C3.96 0 7.92 0 12 0 C12 14.52 12 29.04 12 44 C8.04 44 4.08 44 0 44 C0 29.48 0 14.96 0 0 Z M2 3 C2 15.87 2 28.74 2 42 C4.31 42 6.62 42 9 42 C10.41726236 40.81089749 10.41726236 40.81089749 10.11352539 37.39819336 C10.11336625 35.79540144 10.10767063 34.1926044 10.09765625 32.58984375 C10.0962413 31.74780899 10.09482635 30.90577423 10.09336853 30.03822327 C10.08775263 27.33794665 10.07519748 24.63775172 10.0625 21.9375 C10.05748705 20.11132932 10.05292379 18.28515734 10.04882812 16.45898438 C10.03777804 11.97262458 10.02050279 7.48632616 10 3 C6.71058562 1.6278958 6.71058562 1.6278958 2 3 Z " fill="#3581BB" transform="translate(419,187)"/>
<path d="M0 0 C2.97 0 5.94 0 9 0 C9.33 1.65 9.66 3.3 10 5 C9.34 4.34 8.68 3.68 8 3 C5.03 2.505 5.03 2.505 2 2 C2 15.2 2 28.4 2 42 C3.98 42 5.96 42 8 42 C8 33.75 8 25.5 8 17 C8.99 17 9.98 17 11 17 C11 25.91 11 34.82 11 44 C7.37 44 3.74 44 0 44 C0 29.48 0 14.96 0 0 Z " fill="#2F7DBB" transform="translate(439,187)"/>
<path d="M0 0 C2.88716662 1.72131287 5.32294286 3.60680358 7.4375 6.25 C7.4375 6.91 7.4375 7.57 7.4375 8.25 C6.4475 7.92 5.4575 7.59 4.4375 7.25 C4.4375 6.59 4.4375 5.93 4.4375 5.25 C3.1175 5.25 1.7975 5.25 0.4375 5.25 C0.1075 4.59 -0.2225 3.93 -0.5625 3.25 C-5.10343172 1.83095884 -9.8568099 2.15773157 -14.5625 2.25 C-15.2225 3.9 -15.8825 5.55 -16.5625 7.25 C-12.2725 7.25 -7.9825 7.25 -3.5625 7.25 C-3.2325 7.91 -2.9025 8.57 -2.5625 9.25 C-1.2425 9.25 0.0775 9.25 1.4375 9.25 C1.1075 15.19 0.7775 21.13 0.4375 27.25 C0.1075 27.25 -0.2225 27.25 -0.5625 27.25 C-0.57667969 26.36957031 -0.59085937 25.48914063 -0.60546875 24.58203125 C-0.83458429 17.41777734 -0.83458429 17.41777734 -3.5625 10.9375 C-7.65445517 8.63577522 -10.9758506 8.21929227 -15.5625 9.25 C-20.34674074 12.93018518 -20.72697694 18.58823189 -21.5625 24.25 C-21.8925 24.25 -22.2225 24.25 -22.5625 24.25 C-22.65288099 19.09828377 -22.40931133 14.33086796 -21.5625 9.25 C-20.5725 9.25 -19.5825 9.25 -18.5625 9.25 C-18.5625 6.94 -18.5625 4.63 -18.5625 2.25 C-22.74470911 3.20050207 -24.25332387 3.8205887 -26.8125 7.375 C-27.39 8.32375 -27.9675 9.2725 -28.5625 10.25 C-29.2225 10.25 -29.8825 10.25 -30.5625 10.25 C-29.16556939 5.36074285 -26.62262438 3.19558043 -22.5625 0.25 C-15.75324872 -3.06229681 -6.87754091 -3.28363795 0 0 Z " fill="#248EE3" transform="translate(306.5625,187.75)"/>
<path d="M0 0 C1.09826614 -0.0127597 2.19653229 -0.02551941 3.32807922 -0.03866577 C4.51040634 -0.04089142 5.69273346 -0.04311707 6.91088867 -0.04541016 C8.13160568 -0.05206696 9.35232269 -0.05872375 10.61003113 -0.06558228 C13.19313042 -0.0757084 15.77625588 -0.08039931 18.359375 -0.08007812 C22.30341968 -0.08444449 26.24633935 -0.12074849 30.19018555 -0.15869141 C32.70124943 -0.16456093 35.21231863 -0.16852941 37.72338867 -0.17041016 C38.8996431 -0.18478119 40.07589752 -0.19915222 41.28779602 -0.21395874 C47.92526027 -0.17708846 52.10556297 0.34090666 57.51635742 4.29052734 C57.18635742 4.95052734 56.85635742 5.61052734 56.51635742 6.29052734 C49.76635742 4.54052734 49.76635742 4.54052734 47.51635742 2.29052734 C40.6118968 1.51013812 33.42887303 2.44753901 26.5144043 2.93652344 C22.29106285 3.22338052 18.12253068 3.30686908 13.89135742 3.22802734 C8.75834402 3.17934022 4.9071481 3.95449726 0.39135742 6.47802734 C-2.03146734 7.52791807 -3.01144497 7.11459321 -5.48364258 6.29052734 C-7.14883776 5.94991924 -8.81521724 5.61494338 -10.48364258 5.29052734 C-9.48364258 2.29052734 -9.48364258 2.29052734 -7.76387024 1.1211853 C-5.05282582 0.13358627 -2.88574302 0.02280148 0 0 Z " fill="#CEEAF3" transform="translate(124.483642578125,160.70947265625)"/>
<path d="M0 0 C3.3 0 6.6 0 10 0 C10.33 16.83 10.66 33.66 11 51 C10.01 50.67 9.02 50.34 8 50 C6.88451668 44.63487263 6.87141739 39.458154 6.90234375 34.0078125 C6.9037587 33.06187225 6.90517365 32.11593201 6.90663147 31.1413269 C6.91220516 28.13585171 6.9247528 25.13045247 6.9375 22.125 C6.9425184 20.08073025 6.94708071 18.03645932 6.95117188 15.9921875 C6.96216597 10.99476264 6.97941243 5.99739417 7 1 C5.02 1 3.04 1 1 1 C1 17.5 1 34 1 51 C0.67 51 0.34 51 0 51 C0 34.17 0 17.34 0 0 Z " fill="#2389DC" transform="translate(373,173)"/>
<path d="M0 0 C2.57270694 2.23713647 3.41980726 3.65825627 4 7 C4.08242194 9.46237767 4.10743299 11.92688768 4.09765625 14.390625 C4.0962413 15.09523865 4.09482635 15.79985229 4.09336853 16.52581787 C4.08778933 18.76725584 4.07524073 21.00859243 4.0625 23.25 C4.05748231 24.77343605 4.05291987 26.29687368 4.04882812 27.8203125 C4.03782674 31.54690772 4.02057646 35.27344396 4 39 C0.04 39 -3.92 39 -8 39 C-8.01458252 38.08186523 -8.02916504 37.16373047 -8.04418945 36.21777344 C-8.10533515 32.80312091 -8.17950217 29.38926328 -8.26245117 25.97509766 C-8.29565355 24.49896862 -8.32370017 23.02271406 -8.34643555 21.54638672 C-8.38006951 19.42100668 -8.43238519 17.29677196 -8.48828125 15.171875 C-8.51446533 13.8940918 -8.54064941 12.61630859 -8.56762695 11.29980469 C-9.01582046 7.8792607 -9.66348256 6.46979958 -12 4 C-10.02 4 -8.04 4 -6 4 C-4.50210598 6.99578804 -4.99917345 9.64407419 -5.12109375 12.9765625 C-5.14470474 13.66181 -5.16831573 14.3470575 -5.19264221 15.05307007 C-5.26927857 17.24392416 -5.35330246 19.43442472 -5.4375 21.625 C-5.49072076 23.10935764 -5.54346116 24.59373259 -5.59570312 26.078125 C-5.7248933 29.71896737 -5.86071074 33.35952844 -6 37 C-2.535 36.505 -2.535 36.505 1 36 C1.024759 31.51595436 1.04288799 27.03194519 1.05493164 22.54785156 C1.05995365 21.02310493 1.0667725 19.49836309 1.07543945 17.97363281 C1.08759849 15.77928481 1.09324968 13.5850006 1.09765625 11.390625 C1.10289307 10.07094727 1.10812988 8.75126953 1.11352539 7.39160156 C1.02311329 4.69051582 0.81881355 2.5499384 0 0 Z " fill="#327EB7" transform="translate(475,192)"/>
<path d="M0 0 C5.61 0 11.22 0 17 0 C17 0.33 17 0.66 17 1 C11.72 1 6.44 1 1 1 C1 19.48 1 37.96 1 57 C11.56 56.67 22.12 56.34 33 56 C33 55.01 33 54.02 33 53 C34.134375 52.71125 35.26875 52.4225 36.4375 52.125 C37.613125 51.75375 38.78875 51.3825 40 51 C40.495 50.01 40.495 50.01 41 49 C41.66 49 42.32 49 43 49 C43 48.34 43 47.68 43 47 C43.66 47 44.32 47 45 47 C43.56767675 50.5198582 41.91637039 52.06793624 38.75 54.125 C38.00234375 54.62257812 37.2546875 55.12015625 36.484375 55.6328125 C24.60081367 62.1725082 15.18789576 59 0 59 C0 39.53 0 20.06 0 0 Z " fill="#3884C0" transform="translate(218,172)"/>
<path d="M0 0 C2.86724686 0.57344937 3.8614515 0.8614515 6 3 C6 3.99 6 4.98 6 6 C4.68 6 3.36 6 2 6 C2 6.99 2 7.98 2 9 C-1.57828496 9.80674061 -4.95765945 10.1893828 -8.625 10.25 C-10.03652344 10.28867188 -10.03652344 10.28867188 -11.4765625 10.328125 C-14.4561817 9.94068226 -15.19576316 9.34004051 -17 7 C-17.66 6.01 -18.32 5.02 -19 4 C-12.56971459 2.67611771 -6.5705166 1.75205598 0 2 C0 1.34 0 0.68 0 0 Z " fill="#1C8CE5" transform="translate(249,219)"/>
<path d="M0 0 C1.125 3.75 1.125 3.75 0 6 C0.66 6 1.32 6 2 6 C2.33 5.34 2.66 4.68 3 4 C3.20140476 7.62528568 2.85776765 9.86501708 1 13 C1.99 12.67 2.98 12.34 4 12 C3.67 14.31 3.34 16.62 3 19 C4.32 19.66 5.64 20.32 7 21 C7 22.98 7 24.96 7 27 C7.66 27 8.32 27 9 27 C9 27.66 9 28.32 9 29 C9.94875 29.309375 10.8975 29.61875 11.875 29.9375 C15 31 15 31 17 32 C22.63306277 32.34488139 27.58581238 31.37503178 33 30 C30.10928338 33.32432411 27.82648889 33.79576003 23.5546875 34.2734375 C16.32488006 34.54745353 10.92070596 33.27784341 5 29 C-0.41233983 23.31393264 -1.1626835 18.00560382 -1.125 10.4375 C-1.12886719 9.65697266 -1.13273437 8.87644531 -1.13671875 8.07226562 C-1.12667749 2.25335498 -1.12667749 2.25335498 0 0 Z " fill="#2785D1" transform="translate(275,198)"/>
<path d="M0 0 C4.88422674 1.39549335 7.13941697 3.86804673 10 8 C10.8125 11.375 10.8125 11.375 11 14 C7.04 14 3.08 14 -1 14 C-1.66 12.68 -2.32 11.36 -3 10 C-6.19179973 8.40410014 -9.53502472 8.48437868 -13 9 C-15.41859197 10.75065833 -15.41859197 10.75065833 -17 13 C-17.66 13.66 -18.32 14.32 -19 15 C-19 12.69 -19 10.38 -19 8 C-15.535 7.505 -15.535 7.505 -12 7 C-12 6.34 -12 5.68 -12 5 C-5.7950962 5.2757735 -1.89839001 6.10640794 3 10 C3 8.68 3 7.36 3 6 C3 4.68 3 3.36 3 2 C2.01 1.67 1.02 1.34 0 1 C0 0.67 0 0.34 0 0 Z " fill="#2984CE" transform="translate(354,188)"/>
<path d="M0 0 C1.0828125 0.2475 1.0828125 0.2475 2.1875 0.5 C4 1 4 1 6 2 C6.6328125 3.84765625 6.6328125 3.84765625 7.125 6.0625 C7.29257812 6.79597656 7.46015625 7.52945313 7.6328125 8.28515625 C7.75398438 8.85105469 7.87515625 9.41695312 8 10 C7.01 10.33 6.02 10.66 5 11 C5 10.34 5 9.68 5 9 C0.47618873 6.95698846 -4.16371695 5.99043705 -9 5 C-9 5.66 -9 6.32 -9 7 C-10.32 6.67 -11.64 6.34 -13 6 C-13 5.34 -13 4.68 -13 4 C-14.32 4.33 -15.64 4.66 -17 5 C-17 3.68 -17 2.36 -17 1 C-10.76643833 -0.95562719 -6.33287793 -1.46143337 0 0 Z " fill="#1B8BE7" transform="translate(351,188)"/>
<path d="M0 0 C1.9375 1.0625 1.9375 1.0625 3 3 C3.5 6.5 3.5 6.5 3 10 C0.875 12 0.875 12 -2 13 C-5.1875 12.875 -5.1875 12.875 -8 12 C-10.31282587 8.53076119 -10.42478586 7.07794425 -10 3 C-7.72054654 -1.02256493 -4.21158603 -0.45124136 0 0 Z " fill="#347DB8" transform="translate(428,170)"/>
<path d="M0 0 C1.9375 0.75 1.9375 0.75 4 2 C4.12375 2.66 4.2475 3.32 4.375 4 C4.684375 4.99 4.684375 4.99 5 6 C6.97746603 6.73080266 8.98072489 7.39421747 11 8 C12.8125 9.1875 12.8125 9.1875 14 11 C14.6875 14.6875 14.6875 14.6875 15 18 C12.69 18 10.38 18 8 18 C8 17.01 8 16.02 8 15 C6.35 14.67 4.7 14.34 3 14 C2.67 12.02 2.34 10.04 2 8 C1.34 8 0.68 8 0 8 C0 5.36 0 2.72 0 0 Z " fill="#1B8CE8" transform="translate(508,211)"/>
<path d="M0 0 C0.495 1.485 0.495 1.485 1 3 C-1.97430624 8.63613672 -6.67989411 13.62738434 -12.85870361 15.59056091 C-15.32981944 16.06306505 -17.61918536 16.11975449 -20.13574219 16.11352539 C-21.15649841 16.11344986 -22.17725464 16.11337433 -23.22894287 16.11329651 C-24.32386047 16.10813522 -25.41877808 16.10297394 -26.546875 16.09765625 C-27.6732135 16.0962413 -28.799552 16.09482635 -29.96002197 16.09336853 C-33.55670835 16.08777199 -37.15333244 16.0752201 -40.75 16.0625 C-43.18880118 16.05748455 -45.62760334 16.05292172 -48.06640625 16.04882812 C-54.04429208 16.0378037 -60.02214159 16.02106898 -66 16 C-66 15.67 -66 15.34 -66 15 C-65.43116592 14.98969254 -64.86233185 14.97938507 -64.27626038 14.96876526 C-58.32201124 14.86005405 -52.3678939 14.74551431 -46.41381836 14.62768555 C-44.19574763 14.58454248 -41.97764808 14.54285415 -39.75952148 14.50268555 C-36.55964498 14.44447984 -33.35991078 14.38093389 -30.16015625 14.31640625 C-28.68773216 14.29133751 -28.68773216 14.29133751 -27.18556213 14.26576233 C-21.39618911 14.14296017 -15.74582702 13.72565276 -10 13 C-9.814375 11.88625 -9.814375 11.88625 -9.625 10.75 C-9.03438237 8.15128245 -8.43713552 6.23554414 -7 4 C-6.01 3.67 -5.02 3.34 -4 3 C-3.67 2.34 -3.34 1.68 -3 1 C-1.515 0.505 -1.515 0.505 0 0 Z " fill="#9EC3D8" transform="translate(188,230)"/>
<path d="M0 0 C1.3609623 2.7219246 0.70366248 4.1831957 0.0625 7.125 C-0.13214844 8.03507813 -0.32679687 8.94515625 -0.52734375 9.8828125 C-0.68332031 10.58148438 -0.83929688 11.28015625 -1 12 C-1.66 12 -2.32 12 -3 12 C-5.73269828 17.02602154 -5.17875368 22.14319832 -5.0625 27.6875 C-4.94606612 37.83746197 -5.29226627 47.87688001 -6 58 C-6.33 58 -6.66 58 -7 58 C-7.21948488 51.27446722 -7.4142602 44.54854081 -7.59204102 37.82177734 C-7.65538737 35.53450408 -7.72434562 33.24737896 -7.79907227 30.96044922 C-7.90563456 27.66917612 -7.99186415 24.37789444 -8.07421875 21.0859375 C-8.11157639 20.06696381 -8.14893402 19.04799011 -8.18742371 17.99813843 C-8.3023094 12.54791089 -8.1656063 8.67336976 -5 4 C-2.3125 1.625 -2.3125 1.625 0 0 Z " fill="#CBEAF4" transform="translate(112,167)"/>
<path d="M0 0 C7.85267749 -0.7518521 13.41212334 0.6194016 20 5 C22.22194328 6.88997965 24.06105575 8.80593151 26 11 C25.67 11.66 25.34 12.32 25 13 C23.68 12.34 22.36 11.68 21 11 C21 10.34 21 9.68 21 9 C19.68 8.67 18.36 8.34 17 8 C17 7.34 17 6.68 17 6 C14.69 5.67 12.38 5.34 10 5 C10.66 5.66 11.32 6.32 12 7 C12.39764263 8.98821313 12.73775349 10.98944339 13 13 C12.113125 12.690625 11.22625 12.38125 10.3125 12.0625 C4.69122053 10.42489586 -1.18552198 10.33225589 -7 10 C-7 9.67 -7 9.34 -7 9 C-2.05 9 2.9 9 8 9 C8 7.35 8 5.7 8 4 C7.4225 3.855625 6.845 3.71125 6.25 3.5625 C4.16666667 3.04166667 2.08333333 2.52083333 0 2 C0 1.34 0 0.68 0 0 Z " fill="#2A83CB" transform="translate(238,172)"/>
<path d="M0 0 C1.6328125 1.046875 1.6328125 1.046875 3.8828125 3.171875 C3.8828125 3.831875 3.8828125 4.491875 3.8828125 5.171875 C2.8928125 4.841875 1.9028125 4.511875 0.8828125 4.171875 C0.8828125 3.511875 0.8828125 2.851875 0.8828125 2.171875 C-3.4071875 1.841875 -7.6971875 1.511875 -12.1171875 1.171875 C-12.1171875 1.831875 -12.1171875 2.491875 -12.1171875 3.171875 C-10.6940625 3.11 -10.6940625 3.11 -9.2421875 3.046875 C-6.1171875 3.171875 -6.1171875 3.171875 -4.1171875 5.171875 C-6.0971875 5.171875 -8.0771875 5.171875 -10.1171875 5.171875 C-10.1171875 6.161875 -10.1171875 7.151875 -10.1171875 8.171875 C-9.4571875 8.501875 -8.7971875 8.831875 -8.1171875 9.171875 C-8.72046875 9.25824219 -9.32375 9.34460938 -9.9453125 9.43359375 C-15.40001017 10.38226789 -15.40001017 10.38226789 -19.6796875 13.796875 C-20.39125 14.9725 -20.39125 14.9725 -21.1171875 16.171875 C-20.4571094 11.41931265 -18.8529433 8.84334354 -15.4296875 5.546875 C-13.88702892 4.24756703 -13.88702892 4.24756703 -14.1171875 2.171875 C-16.4271875 2.831875 -18.7371875 3.491875 -21.1171875 4.171875 C-15.76783236 -1.71241565 -7.40770359 -2.89747816 0 0 Z " fill="#2884D2" transform="translate(471.1171875,186.828125)"/>
<path d="M0 0 C3 1 3 1 5 4 C5.99 4.33 6.98 4.66 8 5 C9.1875 8.0625 9.1875 8.0625 10 11 C11.65 11.33 13.3 11.66 15 12 C15 12.66 15 13.32 15 14 C16.65 14 18.3 14 20 14 C20.33 12.68 20.66 11.36 21 10 C24 13.625 24 13.625 24 17 C19.75198816 17.85398176 16.22211075 18.0753498 12 17 C6.71004053 12.77722347 2.78852241 6.0567906 0 0 Z " fill="#2E86CD" transform="translate(502,214)"/>
<path d="M0 0 C4.72114784 4.34842564 6.82841973 7.2124664 7.22705078 13.6887207 C7.22673717 15.10111381 7.21561892 16.5135341 7.1953125 17.92578125 C7.1924826 18.67337204 7.18965271 19.42096283 7.18673706 20.19120789 C7.17559469 22.5651388 7.15050162 24.93868425 7.125 27.3125 C7.11496249 28.9277289 7.10583799 30.54296376 7.09765625 32.15820312 C7.07567489 36.10561594 7.04118657 40.05274274 7 44 C6.67 44 6.34 44 6 44 C6 35.09 6 26.18 6 17 C5.34 17 4.68 17 4 17 C2.57187337 13.00124545 1.6249527 9.19611097 1 5 C0.67364302 3.33195323 0.34274406 1.66475686 0 0 Z " fill="#C4E2F0" transform="translate(183,166)"/>
<path d="M0 0 C3.08045461 2.81258899 3.91064347 4.84715424 4.23828125 9.07421875 C4.42218602 18.02747743 3.79183571 23.78684922 -2.25 30.5 C-2.8275 30.995 -3.405 31.49 -4 32 C-4.66 31.67 -5.32 31.34 -6 31 C-5.525625 30.236875 -5.05125 29.47375 -4.5625 28.6875 C-2.89893903 26.03589452 -2.89893903 26.03589452 -2 23 C-1.34 23 -0.68 23 0 23 C0 19.04 0 15.08 0 11 C0.66 11.33 1.32 11.66 2 12 C1.855625 11.505 1.71125 11.01 1.5625 10.5 C0.78005593 7.02247078 0.41305236 3.54044877 0 0 Z " fill="#2F85C8" transform="translate(314,196)"/>
<path d="M0 0 C3.33537489 1.11179163 4.63707344 2.47411298 7 5 C8.32 4.34 9.64 3.68 11 3 C10.67 3.99 10.34 4.98 10 6 C9.34 6 8.68 6 8 6 C7.96261719 6.97839844 7.92523438 7.95679688 7.88671875 8.96484375 C6.9515252 27.61370345 6.9515252 27.61370345 1 33 C0.34 32.67 -0.32 32.34 -1 32 C-0.38125 31.401875 0.2375 30.80375 0.875 30.1875 C5.60099638 23.09850543 5.34652758 15.43061815 3.80078125 7.3125 C2.93088229 4.80040155 1.91860634 3.77590009 0 2 C0 1.34 0 0.68 0 0 Z " fill="#3188CC" transform="translate(251,185)"/>
<path d="M0 0 C0.66 0.33 1.32 0.66 2 1 C2 18.82 2 36.64 2 55 C4.31 55 6.62 55 9 55 C9 55.66 9 56.32 9 57 C6.03 57 3.06 57 0 57 C-0.81285275 53.46883274 -1.10097851 50.27801871 -1.02172852 46.65893555 C-1.00163223 45.6182341 -0.98153595 44.57753265 -0.96083069 43.5052948 C-0.93379562 42.3936647 -0.90676056 41.28203461 -0.87890625 40.13671875 C-0.85529526 38.98959915 -0.83168427 37.84247955 -0.80735779 36.66059875 C-0.7308873 33.00276808 -0.64679111 29.345158 -0.5625 25.6875 C-0.50926271 23.20508886 -0.45652242 20.72266701 -0.40429688 18.24023438 C-0.2752946 12.16002025 -0.14003374 6.07996952 0 0 Z " fill="#2386D6" transform="translate(488,173)"/>
<path d="M0 0 C3 2 3 2 4 5 C4.66 5 5.32 5 6 5 C7.31626692 8.61973402 8 11.09567131 8 15 C7.01 15.33 6.02 15.66 5 16 C4.34 15.67 3.68 15.34 3 15 C2.375 11.9375 2.375 11.9375 2 9 C1.01 9 0.02 9 -1 9 C-2.25541557 5.23375329 -1.37061958 3.62811066 0 0 Z " fill="#1B8EEB" transform="translate(279,210)"/>
<path d="M0 0 C2.97 0.495 2.97 0.495 6 1 C6.125 6.75 6.125 6.75 5 9 C2.69 9 0.38 9 -2 9 C-2.93423645 5.98968256 -3.04449911 5.13349732 -2 2 C-1.34 2 -0.68 2 0 2 C0 1.34 0 0.68 0 0 Z " fill="#1C8CE7" transform="translate(423,172)"/>
<path d="M0 0 C0.33 0 0.66 0 1 0 C1.33 16.83 1.66 33.66 2 51 C1.01 50.67 0.02 50.34 -1 50 C-1.65841905 46.92737778 -2.07881095 44.46198935 -1.54711914 41.34521484 C-0.87685754 37.24707808 -0.77016909 33.24700559 -0.68359375 29.1015625 C-0.66281265 28.26660248 -0.64203156 27.43164246 -0.62062073 26.57138062 C-0.55560531 23.9226651 -0.49646509 21.27385641 -0.4375 18.625 C-0.39426904 16.82160522 -0.35065334 15.01821962 -0.30664062 13.21484375 C-0.19997361 8.80998961 -0.09857305 4.4050424 0 0 Z " fill="#2D8FDE" transform="translate(382,173)"/>
<path d="M0 0 C0.33 0 0.66 0 1 0 C1 5.28 1 10.56 1 16 C1.99 16.33 2.98 16.66 4 17 C4.87890625 18.7421875 4.87890625 18.7421875 5.5625 20.875 C6.48808088 23.70926461 7.30105884 25.45158826 9 28 C4.28084907 26.14604785 1.93316956 22.9129976 -0.25 18.4375 C-1.54833519 12.48679705 -1.94111733 5.823352 0 0 Z " fill="#3685C3" transform="translate(324,200)"/>
<path d="M0 0 C0.68513672 -0.01160156 1.37027344 -0.02320313 2.07617188 -0.03515625 C4.06640625 -0.0234375 4.06640625 -0.0234375 7.4375 0.375 C8.0975 1.365 8.7575 2.355 9.4375 3.375 C3.8275 3.375 -1.7825 3.375 -7.5625 3.375 C-8.2225 8.325 -8.8825 13.275 -9.5625 18.375 C-9.8925 18.375 -10.2225 18.375 -10.5625 18.375 C-10.6434723 15.93683415 -10.70296972 13.50135616 -10.75 11.0625 C-10.77513672 10.37220703 -10.80027344 9.68191406 -10.82617188 8.97070312 C-10.86679297 6.16784742 -10.85441589 3.92481151 -9.5234375 1.41796875 C-6.45734079 -0.2128038 -3.38385816 -0.05762483 0 0 Z " fill="#316589" transform="translate(147.5625,174.625)"/>
<path d="M0 0 C1.9375 1.0625 1.9375 1.0625 4 3 C4.75 6.6875 4.75 6.6875 5 10 C2.69 10 0.38 10 -2 10 C-2.68707555 7.50935112 -3 5.62113708 -3 3 C-1.5 1.3125 -1.5 1.3125 0 0 Z " fill="#1C8BE6" transform="translate(518,219)"/>
<path d="M0 0 C2 1 2 1 3.10546875 4.0703125 C4.12302102 7.98674036 4.34458529 11.84148979 4.3125 15.875 C4.30976074 16.57246338 4.30702148 17.26992676 4.30419922 17.98852539 C4.19104358 23.58582753 3.31446138 27.9259885 1 33 C0.01 33.495 0.01 33.495 -1 34 C-0.7834375 33.20078125 -0.566875 32.4015625 -0.34375 31.578125 C2.06219657 22.08800242 3.7715969 13.25619 0 4 C0 2.68 0 1.36 0 0 Z " fill="#347CB6" transform="translate(264,185)"/>
<path d="M0 0 C1.6328125 1.046875 1.6328125 1.046875 3.8828125 3.171875 C3.8828125 3.831875 3.8828125 4.491875 3.8828125 5.171875 C2.8928125 4.841875 1.9028125 4.511875 0.8828125 4.171875 C0.8828125 3.511875 0.8828125 2.851875 0.8828125 2.171875 C-1.47167425 2.11733091 -3.82486625 2.0779471 -6.1796875 2.046875 C-7.49066406 2.02367187 -8.80164063 2.00046875 -10.15234375 1.9765625 C-14.23543049 2.17769978 -17.26717803 2.90022038 -21.1171875 4.171875 C-15.76783236 -1.71241565 -7.40770359 -2.89747816 0 0 Z " fill="#3178B5" transform="translate(471.1171875,186.828125)"/>
<path d="M0 0 C1.52519276 0.08937803 3.04681929 0.24537146 4.5625 0.4375 C5.38878906 0.53933594 6.21507812 0.64117187 7.06640625 0.74609375 C7.70449219 0.82988281 8.34257812 0.91367188 9 1 C9 1.33 9 1.66 9 2 C8.0925 2.28875 7.185 2.5775 6.25 2.875 C3.11697634 3.85309428 3.11697634 3.85309428 0.875 5.1875 C-1.54782476 6.23739073 -2.52780239 5.82406587 -5 5 C-6.66519519 4.65939189 -8.33157466 4.32441604 -10 4 C-6.88909677 1.23475269 -5.11713174 0.77745234 -1 1 C-0.67 0.67 -0.34 0.34 0 0 Z " fill="#D0EFF9" transform="translate(124,162)"/>
<path d="M0 0 C2.97 0 5.94 0 9 0 C9 0.66 9 1.32 9 2 C9.8971875 1.6596875 9.8971875 1.6596875 10.8125 1.3125 C11.8953125 1.1578125 11.8953125 1.1578125 13 1 C14.75 2.4375 14.75 2.4375 16 4 C11.52386208 5.73564531 9.89245275 6.27797709 5.1875 4.8125 C2 3 2 3 0 0 Z " fill="#A5D9F5" transform="translate(112,240)"/>
<path d="M0 0 C1.74216797 0.02707031 1.74216797 0.02707031 3.51953125 0.0546875 C4.39996094 0.07789063 5.28039062 0.10109375 6.1875 0.125 C6.1875 0.455 6.1875 0.785 6.1875 1.125 C4.06380763 1.48692504 1.9384887 1.83931747 -0.1875 2.1875 C-1.96253906 2.48333984 -1.96253906 2.48333984 -3.7734375 2.78515625 C-6.8125 3.125 -6.8125 3.125 -8.8125 2.125 C-8.8125 2.785 -8.8125 3.445 -8.8125 4.125 C-9.92625 4.434375 -9.92625 4.434375 -11.0625 4.75 C-14.59540959 6.51645479 -15.73792642 8.83429709 -17.8125 12.125 C-18.4725 12.125 -19.1325 12.125 -19.8125 12.125 C-18.41556939 7.23574285 -15.87262438 5.07058043 -11.8125 2.125 C-7.77116083 0.10433041 -4.49048058 -0.09071678 0 0 Z " fill="#337BB4" transform="translate(295.8125,185.875)"/>
<path d="M0 0 C0.7765373 2.66241359 1.15032919 5.25136507 1.4375 8 C1.81035574 11.03933923 2.1524762 13.47180954 4 16 C7.1000506 18.10360577 10.33291152 18.49994248 14 19 C14 19.33 14 19.66 14 20 C10.08189852 20.54853421 6.55045843 20.93967177 3.06640625 18.828125 C-0.5193412 15.2165808 -1.37091361 12.24806579 -1.4375 7.1875 C-1.2215478 2.4430956 -1.2215478 2.4430956 0 0 Z " fill="#347EB9" transform="translate(334,203)"/>
<path d="M0 0 C0.33 0 0.66 0 1 0 C1.05420701 2.56278699 1.09377007 5.12441483 1.125 7.6875 C1.14175781 8.40873047 1.15851563 9.12996094 1.17578125 9.87304688 C1.21391569 14.04876781 0.8789919 17.2494138 -1 21 C-1.99 21 -2.98 21 -4 21 C-4.33 21.66 -4.66 22.32 -5 23 C-4.45276317 19.62537285 -3.9451 17.91765 -2 15 C-1.5437208 12.42286746 -1.17054724 9.90701715 -0.875 7.3125 C-0.78863281 6.61060547 -0.70226562 5.90871094 -0.61328125 5.18554688 C-0.40173125 3.45788855 -0.199914 1.7290434 0 0 Z " fill="#B6DEF3" transform="translate(189,210)"/>
<path d="M0 0 C2.64590014 -0.02684679 5.29153096 -0.04676357 7.9375 -0.0625 C8.69224609 -0.07087891 9.44699219 -0.07925781 10.22460938 -0.08789062 C12.14994313 -0.09652441 14.07535581 -0.05224333 16 0 C17 1 17 1 17.09765625 4.59765625 C17.0909822 6.08596867 17.07902183 7.57426432 17.0625 9.0625 C17.05798828 9.82111328 17.05347656 10.57972656 17.04882812 11.36132812 C17.0370068 13.24091871 17.01907078 15.12046899 17 17 C16.01 16.34 15.02 15.68 14 15 C14.33 14.67 14.66 14.34 15 14 C15.3089031 7.78214615 15.3089031 7.78214615 13 2 C8.71 2 4.42 2 0 2 C0 1.34 0 0.68 0 0 Z " fill="#063E6B" transform="translate(158,194)"/>
<path d="M0 0 C3.96 0 7.92 0 12 0 C12.33 0.66 12.66 1.32 13 2 C14.32 2 15.64 2 17 2 C16.67 7.94 16.34 13.88 16 20 C15.67 20 15.34 20 15 20 C14.98582031 19.11957031 14.97164063 18.23914063 14.95703125 17.33203125 C14.74178163 10.19014881 14.74178163 10.19014881 12 3.75 C8.03728079 1.4384138 4.53040872 1.10857189 0 1 C0 0.67 0 0.34 0 0 Z " fill="#3584C3" transform="translate(291,195)"/>
<path d="M0 0 C15.92938497 -0.738041 15.92938497 -0.738041 22 4 C21.67 4.66 21.34 5.32 21 6 C14.25 4.25 14.25 4.25 12 2 C9.66708189 1.95598268 7.33299825 1.96045766 5 2 C3.32442621 1.71479595 1.65182755 1.40044304 0 1 C0 0.67 0 0.34 0 0 Z " fill="#C5DDE6" transform="translate(160,161)"/>
<path d="M0 0 C2.64347024 0.45316633 4.91851126 0.96354451 7.375 2.0625 C13.63107175 4.29681134 19.78519491 2.5783632 26 1 C23.08884224 4.34783142 20.80129393 4.82938054 16.484375 5.23828125 C9.79098045 5.4199591 5.73968418 4.46546969 0 1 C0 0.67 0 0.34 0 0 Z " fill="#3880BA" transform="translate(282,227)"/>
<path d="M0 0 C0.85078125 0.00322266 1.7015625 0.00644531 2.578125 0.00976562 C3.46757813 0.01814453 4.35703125 0.02652344 5.2734375 0.03515625 C6.170625 0.03966797 7.0678125 0.04417969 7.9921875 0.04882812 C10.21100398 0.06063034 12.42968768 0.0770947 14.6484375 0.09765625 C11.61318264 2.12115949 10.45417548 2.41889643 6.9609375 2.72265625 C6.15269531 2.79742187 5.34445313 2.8721875 4.51171875 2.94921875 C3.89683594 2.99820313 3.28195313 3.0471875 2.6484375 3.09765625 C2.6484375 2.43765625 2.6484375 1.77765625 2.6484375 1.09765625 C2.1534375 1.40703125 1.6584375 1.71640625 1.1484375 2.03515625 C-2.33143031 3.51410007 -5.59184759 3.72168476 -9.3515625 4.09765625 C-6.23661721 0.84112254 -4.50809215 -0.03005395 0 0 Z " fill="#C8DDE4" transform="translate(123.3515625,160.90234375)"/>
<path d="M0 0 C4.29 0 8.58 0 13 0 C12.34 1.32 11.68 2.64 11 4 C10.34 4 9.68 4 9 4 C8.566875 4.9590625 8.566875 4.9590625 8.125 5.9375 C7 8 7 8 5 9 C5.309375 8.401875 5.61875 7.80375 5.9375 7.1875 C7.10209704 4.91043228 7.10209704 4.91043228 8 2 C5.03 2 2.06 2 -1 2 C-0.67 1.34 -0.34 0.68 0 0 Z " fill="#3677AE" transform="translate(513,187)"/>
<path d="M0 0 C7 1 7 1 10.4375 1.625 C14.55502718 2.05842391 17.92109689 1.64403733 22 1 C18.85594437 4.14405563 15.94840482 4.17927959 11.6875 4.25 C7.06297437 4.22546671 3.95792121 3.56730025 0 1 C0 0.67 0 0.34 0 0 Z " fill="#3783BE" transform="translate(333,228)"/>
<path d="M0 0 C0.66 0.33 1.32 0.66 2 1 C2.5625 3.3125 2.5625 3.3125 3 6 C3.37907282 8.18703385 3.37907282 8.18703385 4 10 C4.66 10.33 5.32 10.66 6 11 C6.625 13.0625 6.625 13.0625 7 15 C3.35428464 13.78476155 2.62888235 12.21339249 0.85546875 8.91796875 C-0.31160203 6.3013854 -0.79652341 3.84867224 -1 1 C-0.67 0.67 -0.34 0.34 0 0 Z " fill="#B5D5E3" transform="translate(105,225)"/>
<path d="M0 0 C1.12664062 -0.00515625 2.25328125 -0.0103125 3.4140625 -0.015625 C6.375 0.25 6.375 0.25 9.375 2.25 C7.0489143 2.63063221 4.71444736 2.96269945 2.375 3.25 C2.045 2.92 1.715 2.59 1.375 2.25 C-3.32554457 2.46366112 -8.03928541 3.21451606 -12.625 4.25 C-11.625 2.25 -11.625 2.25 -9.4765625 1.140625 C-6.18948583 0.1139764 -3.43979213 -0.01581514 0 0 Z " fill="#3077B3" transform="translate(344.625,185.75)"/>
<path d="M0 0 C0.66 0 1.32 0 2 0 C2 4.62 2 9.24 2 14 C1.34 14 0.68 14 0 14 C-0.19456705 12.04235617 -0.38044247 10.08384679 -0.5625 8.125 C-0.66691406 7.03445312 -0.77132812 5.94390625 -0.87890625 4.8203125 C-1 2 -1 2 0 0 Z " fill="#043C64" transform="translate(155,178)"/>
<path d="M0 0 C0.33 0.66 0.66 1.32 1 2 C-0.01320313 1.93039063 -0.01320313 1.93039063 -1.046875 1.859375 C-6.6515576 1.47905748 -6.6515576 1.47905748 -11.5 3.875 C-11.995 4.57625 -12.49 5.2775 -13 6 C-13.66 6.66 -14.32 7.32 -15 8 C-15 5.69 -15 3.38 -15 1 C-10.03926578 -0.32286246 -5.08888488 -0.08893197 0 0 Z " fill="#3481BE" transform="translate(350,195)"/>
<path d="M0 0 C2 1.8125 2 1.8125 4 4 C4 4.99 4 5.98 4 7 C0.04 7 -3.92 7 -8 7 C-8.66 5.68 -9.32 4.36 -10 3 C-9.34 3 -8.68 3 -8 3 C-7.67 3.66 -7.34 4.32 -7 5 C-4.36 5 -1.72 5 1 5 C0.67 3.35 0.34 1.7 0 0 Z " fill="#3F82B7" transform="translate(522,224)"/>
<path d="M0 0 C2 3 2 3 2 5 C1.113125 4.690625 0.22625 4.38125 -0.6875 4.0625 C-6.30877947 2.42489586 -12.18552198 2.33225589 -18 2 C-18 1.67 -18 1.34 -18 1 C-16.17662109 1.01740234 -16.17662109 1.01740234 -14.31640625 1.03515625 C-12.73177236 1.04453278 -11.14713682 1.05363313 -9.5625 1.0625 C-8.76005859 1.07087891 -7.95761719 1.07925781 -7.13085938 1.08789062 C-5.08704779 1.0965143 -3.04316098 1.0522815 -1 1 C-0.67 0.67 -0.34 0.34 0 0 Z " fill="#3786C7" transform="translate(249,180)"/>
<path d="M0 0 C-0.61875 0.61875 -1.2375 1.2375 -1.875 1.875 C-4.71043937 6.04476378 -5.27334545 10.07595927 -6 15 C-6.33 15 -6.66 15 -7 15 C-7.09038099 9.84828377 -6.84681133 5.08086796 -6 0 C-2.25 -1.125 -2.25 -1.125 0 0 Z " fill="#3985C5" transform="translate(291,197)"/>
<path d="M0 0 C5.18701457 0.31436452 8.5947359 3.30033267 12 7 C12 7.66 12 8.32 12 9 C11.01 8.67 10.02 8.34 9 8 C9 7.34 9 6.68 9 6 C7.68 6 6.36 6 5 6 C4.87625 5.071875 4.87625 5.071875 4.75 4.125 C4.18741541 1.81562433 4.18741541 1.81562433 1.9375 0.75 C1.298125 0.5025 0.65875 0.255 0 0 Z " fill="#3281C0" transform="translate(302,187)"/>
<path d="M0 0 C1.98 0.66 3.96 1.32 6 2 C6 2.66 6 3.32 6 4 C6.763125 4.103125 7.52625 4.20625 8.3125 4.3125 C11.17059424 5.04364039 12.15742885 5.76951913 14 8 C13.67 8.66 13.34 9.32 13 10 C11.68 9.34 10.36 8.68 9 8 C9 7.34 9 6.68 9 6 C7.68 5.67 6.36 5.34 5 5 C5 4.34 5 3.68 5 3 C4.360625 2.87625 3.72125 2.7525 3.0625 2.625 C2.381875 2.41875 1.70125 2.2125 1 2 C0.67 1.34 0.34 0.68 0 0 Z " fill="#2687CF" transform="translate(250,175)"/>
<path d="M0 0 C0.99 0 1.98 0 3 0 C2.3125 3.375 2.3125 3.375 1 7 C-1.625 8.4375 -1.625 8.4375 -4 9 C-2.68 6.03 -1.36 3.06 0 0 Z " fill="#2C81D0" transform="translate(359,220)"/>
<path d="M0 0 C1.875 0.3125 1.875 0.3125 4 1 C4.66 1.99 5.32 2.98 6 4 C4.35 4.66 2.7 5.32 1 6 C0.34 5.34 -0.32 4.68 -1 4 C-0.625 1.875 -0.625 1.875 0 0 Z " fill="#C6EDFA" transform="translate(169,162)"/>
<path d="M0 0 C2.86724686 0.57344937 3.8614515 0.8614515 6 3 C5.34 3 4.68 3 4 3 C4.33 4.65 4.66 6.3 5 8 C3.68 8.33 2.36 8.66 1 9 C1.020625 8.2575 1.04125 7.515 1.0625 6.75 C1.00671312 4.29537721 0.6930096 2.33890739 0 0 Z " fill="#1F92E7" transform="translate(509,194)"/>
<path d="M0 0 C1.32 0.99 2.64 1.98 4 3 C3.67 3.66 3.34 4.32 3 5 C0.67843403 5.40729228 -1.6568787 5.74438677 -4 6 C-1.125 1.125 -1.125 1.125 0 0 Z " fill="#178EED" transform="translate(505,199)"/>
<path d="M0 0 C3 1 3 1 4.6875 3.5 C6.30973403 7.82595742 6.27356283 11.44061947 6 16 C5.67 16 5.34 16 5 16 C4.89042969 15.24074219 4.78085938 14.48148438 4.66796875 13.69921875 C4.43013672 12.20841797 4.43013672 12.20841797 4.1875 10.6875 C3.96126953 9.20830078 3.96126953 9.20830078 3.73046875 7.69921875 C2.95244504 4.82427551 2.16613446 3.92874986 0 2 C0 1.34 0 0.68 0 0 Z " fill="#3F86BD" transform="translate(251,185)"/>
<path d="M0 0 C2 1.1875 2 1.1875 4 3 C4.25 5.6875 4.25 5.6875 4 8 C3.01 8.495 3.01 8.495 2 9 C2 7.68 2 6.36 2 5 C1.01 5 0.02 5 -1 5 C-0.67 3.35 -0.34 1.7 0 0 Z " fill="#2D88D3" transform="translate(518,219)"/>
<path d="M0 0 C0.66 0.33 1.32 0.66 2 1 C1.01 1.33 0.02 1.66 -1 2 C-0.67 2.763125 -0.34 3.52625 0 4.3125 C1 7 1 7 1 10 C-1.5 7.6875 -1.5 7.6875 -4 5 C-4 4.01 -4 3.02 -4 2 C-2.125 0.9375 -2.125 0.9375 0 0 Z " fill="#3684C5" transform="translate(511,202)"/>
<path d="M0 0 C0.66 0.33 1.32 0.66 2 1 C-1.625 6.75 -1.625 6.75 -5 9 C-5 7.68 -5 6.36 -5 5 C-4.34 5 -3.68 5 -3 5 C-2.87625 4.360625 -2.7525 3.72125 -2.625 3.0625 C-2.41875 2.381875 -2.2125 1.70125 -2 1 C-1.34 0.67 -0.68 0.34 0 0 Z " fill="#2C88D4" transform="translate(518,192)"/>
<path d="M0 0 C7.5 -0.375 7.5 -0.375 12 3 C8.04 2.67 4.08 2.34 0 2 C0 1.34 0 0.68 0 0 Z " fill="#2A89D7" transform="translate(294,187)"/>
<path d="M0 0 C2.375 -0.1875 2.375 -0.1875 5 0 C5.66 0.99 6.32 1.98 7 3 C9.05003955 4.19232613 9.05003955 4.19232613 11 5 C10.01 5.495 10.01 5.495 9 6 C2.4375 3.65625 2.4375 3.65625 0 0 Z " fill="#A3CDDE" transform="translate(112,240)"/>
<path d="M0 0 C0.66 0 1.32 0 2 0 C2 2.64 2 5.28 2 8 C0.35 8 -1.3 8 -3 8 C-3 7.34 -3 6.68 -3 6 C-2.01 6 -1.02 6 0 6 C0 4.02 0 2.04 0 0 Z " fill="#2084D3" transform="translate(495,218)"/>
<path d="M0 0 C1.32 0.33 2.64 0.66 4 1 C4 1.99 4 2.98 4 4 C4.66 4 5.32 4 6 4 C6 4.66 6 5.32 6 6 C4.35 5.67 2.7 5.34 1 5 C0.67 3.35 0.34 1.7 0 0 Z " fill="#2C87CC" transform="translate(278,221)"/>
<path d="M0 0 C0.33 0.66 0.66 1.32 1 2 C-0.60049704 2.39036513 -2.20562371 2.76178619 -3.8125 3.125 C-4.70582031 3.33382812 -5.59914063 3.54265625 -6.51953125 3.7578125 C-9 4 -9 4 -12 2 C-7.8803623 0.70756464 -4.33168317 -0.26252625 0 0 Z " fill="#2788DA" transform="translate(346,187)"/>
<path d="M0 0 C1.0625 1.875 1.0625 1.875 2 4 C1 6 1 6 -1 7 C-1.99 6.01 -2.98 5.02 -4 4 C-2.68 2.68 -1.36 1.36 0 0 Z " fill="#1C8CEC" transform="translate(257,214)"/>
<path d="M0 0 C0.66 0 1.32 0 2 0 C1.875 1.75 1.875 1.75 1 4 C-2.0625 6.25 -2.0625 6.25 -5 8 C-3.63055898 5.05043472 -2.12169591 2.47531189 0 0 Z " fill="#3182BF" transform="translate(504,196)"/>
<path d="M0 0 C1.65 1.65 3.3 3.3 5 5 C4.67 5.66 4.34 6.32 4 7 C2.0625 6.25 2.0625 6.25 0 5 C-0.8125 2.9375 -0.8125 2.9375 -1 1 C-0.67 0.67 -0.34 0.34 0 0 Z " fill="#3088CF" transform="translate(513,212)"/>
<path d="M0 0 C0.66 0.33 1.32 0.66 2 1 C2 2.65 2 4.3 2 6 C-0.64 6 -3.28 6 -6 6 C-2.25 4 -2.25 4 0 4 C0 2.68 0 1.36 0 0 Z " fill="#3484C7" transform="translate(362,195)"/>
<path d="M0 0 C0.33 0 0.66 0 1 0 C1 1.98 1 3.96 1 6 C0.01 6 -0.98 6 -2 6 C-2.33 6.66 -2.66 7.32 -3 8 C-2.45276317 4.62537285 -1.9451 2.91765 0 0 Z " fill="#A3DAF8" transform="translate(187,225)"/>
<path d="M0 0 C3.37503669 1.1858237 5.64722731 2.27573689 8 5 C7.67 5.66 7.34 6.32 7 7 C5.68 6.34 4.36 5.68 3 5 C3 4.01 3 3.02 3 2 C2.01 1.67 1.02 1.34 0 1 C0 0.67 0 0.34 0 0 Z " fill="#347EB8" transform="translate(354,188)"/>
<path d="M0 0 C0.99 0.33 1.98 0.66 3 1 C3.6875 3.0625 3.6875 3.0625 4 5 C3.01 5.33 2.02 5.66 1 6 C1 5.34 1 4.68 1 4 C0.01 3.67 -0.98 3.34 -2 3 C-1 1 -1 1 0 0 Z " fill="#1E8FEE" transform="translate(355,193)"/>
<path d="M0 0 C0.99 0.33 1.98 0.66 3 1 C2.67 2.65 2.34 4.3 2 6 C0.68 5.67 -0.64 5.34 -2 5 C-2 4.34 -2 3.68 -2 3 C-1.34 3 -0.68 3 0 3 C0 2.01 0 1.02 0 0 Z " fill="#218ADA" transform="translate(422,175)"/>
<path d="" fill="#FFFFFF" transform="translate(0,0)"/>
<path d="" fill="#FFFFFF" transform="translate(0,0)"/>
<path d="" fill="#FFFFFF" transform="translate(0,0)"/>
<path d="" fill="#FFFFFF" transform="translate(0,0)"/>
<path d="" fill="#FFFFFF" transform="translate(0,0)"/>
<path d="" fill="#FFFFFF" transform="translate(0,0)"/>
<path d="" fill="#FFFFFF" transform="translate(0,0)"/>
<path d="" fill="#FFFFFF" transform="translate(0,0)"/>
<path d="" fill="#FFFFFF" transform="translate(0,0)"/>
<path d="" fill="#FFFFFF" transform="translate(0,0)"/>
<path d="" fill="#FFFFFF" transform="translate(0,0)"/>
<path d="" fill="#FFFFFF" transform="translate(0,0)"/>
<path d="" fill="#FFFFFF" transform="translate(0,0)"/>
<path d="" fill="#FFFFFF" transform="translate(0,0)"/>
<path d="" fill="#FFFFFF" transform="translate(0,0)"/>
<path d="" fill="#FFFFFF" transform="translate(0,0)"/>
<path d="" fill="#FFFFFF" transform="translate(0,0)"/>
<path d="" fill="#FFFFFF" transform="translate(0,0)"/>
<path d="" fill="#FFFFFF" transform="translate(0,0)"/>
<path d="" fill="#FFFFFF" transform="translate(0,0)"/>
<path d="" fill="#FFFFFF" transform="translate(0,0)"/>
<path d="" fill="#FFFFFF" transform="translate(0,0)"/>
<path d="" fill="#FFFFFF" transform="translate(0,0)"/>
<path d="" fill="#FFFFFF" transform="translate(0,0)"/>
<path d="" fill="#FFFFFF" transform="translate(0,0)"/>
<path d="" fill="#FFFFFF" transform="translate(0,0)"/>
<path d="" fill="#FFFFFF" transform="translate(0,0)"/>
<path d="" fill="#FFFFFF" transform="translate(0,0)"/>
<path d="" fill="#FFFFFF" transform="translate(0,0)"/>
<path d="" fill="#FFFFFF" transform="translate(0,0)"/>
<path d="" fill="#FFFFFF" transform="translate(0,0)"/>
<path d="" fill="#FFFFFF" transform="translate(0,0)"/>
<path d="" fill="#FFFFFF" transform="translate(0,0)"/>
<path d="" fill="#FFFFFF" transform="translate(0,0)"/>
<path d="" fill="#FFFFFF" transform="translate(0,0)"/>
<path d="" fill="#FFFFFF" transform="translate(0,0)"/>
<path d="" fill="#FFFFFF" transform="translate(0,0)"/>
<path d="" fill="#FFFFFF" transform="translate(0,0)"/>
<path d="" fill="#FFFFFF" transform="translate(0,0)"/>
<path d="" fill="#FFFFFF" transform="translate(0,0)"/>
<path d="" fill="#FFFFFF" transform="translate(0,0)"/>
<path d="" fill="#FFFFFF" transform="translate(0,0)"/>
<path d="" fill="#FFFFFF" transform="translate(0,0)"/>
<path d="" fill="#FFFFFF" transform="translate(0,0)"/>
<path d="" fill="#FFFFFF" transform="translate(0,0)"/>
<path d="" fill="#FFFFFF" transform="translate(0,0)"/>
<path d="" fill="#FFFFFF" transform="translate(0,0)"/>
<path d="" fill="#FFFFFF" transform="translate(0,0)"/>
<path d="" fill="#FFFFFF" transform="translate(0,0)"/>
<path d="" fill="#FFFFFF" transform="translate(0,0)"/>
<path d="" fill="#FFFFFF" transform="translate(0,0)"/>
<path d="" fill="#FFFFFF" transform="translate(0,0)"/>
<path d="" fill="#FFFFFF" transform="translate(0,0)"/>
<path d="" fill="#FFFFFF" transform="translate(0,0)"/>
<path d="" fill="#FFFFFF" transform="translate(0,0)"/>
<path d="" fill="#FFFFFF" transform="translate(0,0)"/>
<path d="" fill="#FFFFFF" transform="translate(0,0)"/>
<path d="" fill="#FFFFFF" transform="translate(0,0)"/>
<path d="" fill="#FFFFFF" transform="translate(0,0)"/>
<path d="" fill="#FFFFFF" transform="translate(0,0)"/>
<path d="" fill="#FFFFFF" transform="translate(0,0)"/>
<path d="" fill="#FFFFFF" transform="translate(0,0)"/>
<path d="" fill="#FFFFFF" transform="translate(0,0)"/>
<path d="" fill="#FFFFFF" transform="translate(0,0)"/>
<path d="" fill="#FFFFFF" transform="translate(0,0)"/>
<path d="" fill="#FFFFFF" transform="translate(0,0)"/>
<path d="" fill="#FFFFFF" transform="translate(0,0)"/>
<path d="" fill="#FFFFFF" transform="translate(0,0)"/>
<path d="" fill="#FFFFFF" transform="translate(0,0)"/>
<path d="" fill="#FFFFFF" transform="translate(0,0)"/>
<path d="" fill="#FFFFFF" transform="translate(0,0)"/>
<path d="" fill="#FFFFFF" transform="translate(0,0)"/>
<path d="" fill="#FFFFFF" transform="translate(0,0)"/>
<path d="" fill="#FFFFFF" transform="translate(0,0)"/>
<path d="" fill="#FFFFFF" transform="translate(0,0)"/>
<path d="" fill="#FFFFFF" transform="translate(0,0)"/>
<path d="" fill="#FFFFFF" transform="translate(0,0)"/>
<path d="" fill="#FFFFFF" transform="translate(0,0)"/>
<path d="" fill="#FFFFFF" transform="translate(0,0)"/>
<path d="" fill="#FFFFFF" transform="translate(0,0)"/>
<path d="" fill="#FFFFFF" transform="translate(0,0)"/>
<path d="" fill="#FFFFFF" transform="translate(0,0)"/>
<path d="" fill="#FFFFFF" transform="translate(0,0)"/>
<path d="" fill="#FFFFFF" transform="translate(0,0)"/>
<path d="" fill="#FFFFFF" transform="translate(0,0)"/>
<path d="" fill="#FFFFFF" transform="translate(0,0)"/>
<path d="" fill="#FFFFFF" transform="translate(0,0)"/>
<path d="" fill="#FFFFFF" transform="translate(0,0)"/>
<path d="" fill="#FFFFFF" transform="translate(0,0)"/>
<path d="" fill="#FFFFFF" transform="translate(0,0)"/>
<path d="" fill="#FFFFFF" transform="translate(0,0)"/>
<path d="" fill="#FFFFFF" transform="translate(0,0)"/>
<path d="" fill="#FFFFFF" transform="translate(0,0)"/>
<path d="" fill="#FFFFFF" transform="translate(0,0)"/>
<path d="" fill="#FFFFFF" transform="translate(0,0)"/>
<path d="" fill="#FFFFFF" transform="translate(0,0)"/>
<path d="" fill="#FFFFFF" transform="translate(0,0)"/>
</svg>
